<?xml version="1.0" standalone="yes"?>
<!-- SVG graphic -->
<svg xmlns='http://www.w3.org/2000/svg' xmlns:xlink='http://www.w3.org/1999/xlink'
width="1024px" height="512px" preserveAspectRatio="xMinYMin meet" viewBox="0 0 1024 512" version="1.1">
<image x="0" y="0" width="512px" height="256px" opacity="1" xlink:href="images/site1.jpg"/>
<image x="512" y="0" width="512px" height="256px" opacity="1" xlink:href="images/site1.jpg"/>
<image x="0" y="256" width="512px" height="256px" opacity="1" xlink:href="images/site2.jpg"/>
<polyline points="136.465,72.7601,84.4029,321.623" stroke="green" stroke-width="2" fill="none"/>
<circle cx="136.465" cy="72.7601" r="3" stroke="yellow" stroke-width="2" fill="none"/>
<circle cx="84.4029" cy="321.623" r="3" stroke="yellow" stroke-width="2" fill="none"/>
<polyline points="524.264,75.8504,53.2442,287.638" stroke="green" stroke-width="2" fill="none"/>
<circle cx="524.264" cy="75.8504" r="3" stroke="yellow" stroke-width="2" fill="none"/>
<circle cx="53.2442" cy="287.638" r="3" stroke="yellow" stroke-width="2" fill="none"/>
<polyline points="734.639,93.8341,324.68,363.898" stroke="green" stroke-width="2" fill="none"/>
<circle cx="734.639" cy="93.8341" r="3" stroke="yellow" stroke-width="2" fill="none"/>
<circle cx="324.68" cy="363.898" r="3" stroke="yellow" stroke-width="2" fill="none"/>
<polyline points="756.761,97.8507,250.107,365.485" stroke="green" stroke-width="2" fill="none"/>
<circle cx="756.761" cy="97.8507" r="3" stroke="yellow" stroke-width="2" fill="none"/>
<circle cx="250.107" cy="365.485" r="3" stroke="yellow" stroke-width="2" fill="none"/>
<polyline points="465.743,100.412,408.624,355.428" stroke="green" stroke-width="2" fill="none"/>
<circle cx="465.743" cy="100.412" r="3" stroke="yellow" stroke-width="2" fill="none"/>
<circle cx="408.624" cy="355.428" r="3" stroke="yellow" stroke-width="2" fill="none"/>
<polyline points="527.86,103.342,27.41,353.214" stroke="green" stroke-width="2" fill="none"/>
<circle cx="527.86" cy="103.342" r="3" stroke="yellow" stroke-width="2" fill="none"/>
<circle cx="27.41" cy="353.214" r="3" stroke="yellow" stroke-width="2" fill="none"/>
<polyline points="535.496,106.872,40.1469,358.043" stroke="green" stroke-width="2" fill="none"/>
<circle cx="535.496" cy="106.872" r="3" stroke="yellow" stroke-width="2" fill="none"/>
<circle cx="40.1469" cy="358.043" r="3" stroke="yellow" stroke-width="2" fill="none"/>
<polyline points="873.945,106.92,380.418,362.872" stroke="green" stroke-width="2" fill="none"/>
<circle cx="873.945" cy="106.92" r="3" stroke="yellow" stroke-width="2" fill="none"/>
<circle cx="380.418" cy="362.872" r="3" stroke="yellow" stroke-width="2" fill="none"/>
<polyline points="289.16,107.879,279.636,370.375" stroke="green" stroke-width="2" fill="none"/>
<circle cx="289.16" cy="107.879" r="3" stroke="yellow" stroke-width="2" fill="none"/>
<circle cx="279.636" cy="370.375" r="3" stroke="yellow" stroke-width="2" fill="none"/>
<polyline points="563.827,109.464,159.044,404.174" stroke="green" stroke-width="2" fill="none"/>
<circle cx="563.827" cy="109.464" r="3" stroke="yellow" stroke-width="2" fill="none"/>
<circle cx="159.044" cy="404.174" r="3" stroke="yellow" stroke-width="2" fill="none"/>
<polyline points="333.206,109.577,307.09,372.125" stroke="green" stroke-width="2" fill="none"/>
<circle cx="333.206" cy="109.577" r="3" stroke="yellow" stroke-width="2" fill="none"/>
<circle cx="307.09" cy="372.125" r="3" stroke="yellow" stroke-width="2" fill="none"/>
<polyline points="138.407,113.943,131.893,374.739" stroke="green" stroke-width="2" fill="none"/>
<circle cx="138.407" cy="113.943" r="3" stroke="yellow" stroke-width="2" fill="none"/>
<circle cx="131.893" cy="374.739" r="3" stroke="yellow" stroke-width="2" fill="none"/>
<polyline points="494.084,114.635,486.338,370.055" stroke="green" stroke-width="2" fill="none"/>
<circle cx="494.084" cy="114.635" r="3" stroke="yellow" stroke-width="2" fill="none"/>
<circle cx="486.338" cy="370.055" r="3" stroke="yellow" stroke-width="2" fill="none"/>
<polyline points="739.97,115.728,238.691,378.342" stroke="green" stroke-width="2" fill="none"/>
<circle cx="739.97" cy="115.728" r="3" stroke="yellow" stroke-width="2" fill="none"/>
<circle cx="238.691" cy="378.342" r="3" stroke="yellow" stroke-width="2" fill="none"/>
<polyline points="711.966,116.327,224.962,378.44" stroke="green" stroke-width="2" fill="none"/>
<circle cx="711.966" cy="116.327" r="3" stroke="yellow" stroke-width="2" fill="none"/>
<circle cx="224.962" cy="378.44" r="3" stroke="yellow" stroke-width="2" fill="none"/>
<polyline points="486.192,117.45,471.983,373.237" stroke="green" stroke-width="2" fill="none"/>
<circle cx="486.192" cy="117.45" r="3" stroke="yellow" stroke-width="2" fill="none"/>
<circle cx="471.983" cy="373.237" r="3" stroke="yellow" stroke-width="2" fill="none"/>
<polyline points="457.039,124.31,439.47,382.144" stroke="green" stroke-width="2" fill="none"/>
<circle cx="457.039" cy="124.31" r="3" stroke="yellow" stroke-width="2" fill="none"/>
<circle cx="439.47" cy="382.144" r="3" stroke="yellow" stroke-width="2" fill="none"/>
<polyline points="521.993,125.861,14.929,385.118" stroke="green" stroke-width="2" fill="none"/>
<circle cx="521.993" cy="125.861" r="3" stroke="yellow" stroke-width="2" fill="none"/>
<circle cx="14.929" cy="385.118" r="3" stroke="yellow" stroke-width="2" fill="none"/>
<polyline points="477.734,129.475,463.277,389.87" stroke="green" stroke-width="2" fill="none"/>
<circle cx="477.734" cy="129.475" r="3" stroke="yellow" stroke-width="2" fill="none"/>
<circle cx="463.277" cy="389.87" r="3" stroke="yellow" stroke-width="2" fill="none"/>
<polyline points="297.952,129.95,286.694,385.907" stroke="green" stroke-width="2" fill="none"/>
<circle cx="297.952" cy="129.95" r="3" stroke="yellow" stroke-width="2" fill="none"/>
<circle cx="286.694" cy="385.907" r="3" stroke="yellow" stroke-width="2" fill="none"/>
<polyline points="516.92,130.501,8.37468,391.139" stroke="green" stroke-width="2" fill="none"/>
<circle cx="516.92" cy="130.501" r="3" stroke="yellow" stroke-width="2" fill="none"/>
<circle cx="8.37468" cy="391.139" r="3" stroke="yellow" stroke-width="2" fill="none"/>
<polyline points="585.712,131.937,156.397,399.423" stroke="green" stroke-width="2" fill="none"/>
<circle cx="585.712" cy="131.937" r="3" stroke="yellow" stroke-width="2" fill="none"/>
<circle cx="156.397" cy="399.423" r="3" stroke="yellow" stroke-width="2" fill="none"/>
<polyline points="604.408,133.79,173.285,398.515" stroke="green" stroke-width="2" fill="none"/>
<circle cx="604.408" cy="133.79" r="3" stroke="yellow" stroke-width="2" fill="none"/>
<circle cx="173.285" cy="398.515" r="3" stroke="yellow" stroke-width="2" fill="none"/>
<polyline points="459.009,134.038,441.01,394.888" stroke="green" stroke-width="2" fill="none"/>
<circle cx="459.009" cy="134.038" r="3" stroke="yellow" stroke-width="2" fill="none"/>
<circle cx="441.01" cy="394.888" r="3" stroke="yellow" stroke-width="2" fill="none"/>
<polyline points="460.041,140.141,441.123,401.457" stroke="green" stroke-width="2" fill="none"/>
<circle cx="460.041" cy="140.141" r="3" stroke="yellow" stroke-width="2" fill="none"/>
<circle cx="441.123" cy="401.457" r="3" stroke="yellow" stroke-width="2" fill="none"/>
<polyline points="616.136,140.606,147.326,370.485" stroke="green" stroke-width="2" fill="none"/>
<circle cx="616.136" cy="140.606" r="3" stroke="yellow" stroke-width="2" fill="none"/>
<circle cx="147.326" cy="370.485" r="3" stroke="yellow" stroke-width="2" fill="none"/>
<polyline points="303.296,151.857,291.239,402.5" stroke="green" stroke-width="2" fill="none"/>
<circle cx="303.296" cy="151.857" r="3" stroke="yellow" stroke-width="2" fill="none"/>
<circle cx="291.239" cy="402.5" r="3" stroke="yellow" stroke-width="2" fill="none"/>
<polyline points="976.901,153.395,468.827,390.48" stroke="green" stroke-width="2" fill="none"/>
<circle cx="976.901" cy="153.395" r="3" stroke="yellow" stroke-width="2" fill="none"/>
<circle cx="468.827" cy="390.48" r="3" stroke="yellow" stroke-width="2" fill="none"/>
<polyline points="412.781,155.26,383.393,413.988" stroke="green" stroke-width="2" fill="none"/>
<circle cx="412.781" cy="155.26" r="3" stroke="yellow" stroke-width="2" fill="none"/>
<circle cx="383.393" cy="413.988" r="3" stroke="yellow" stroke-width="2" fill="none"/>
<polyline points="736.13,155.584,239.106,405.408" stroke="green" stroke-width="2" fill="none"/>
<circle cx="736.13" cy="155.584" r="3" stroke="yellow" stroke-width="2" fill="none"/>
<circle cx="239.106" cy="405.408" r="3" stroke="yellow" stroke-width="2" fill="none"/>
<polyline points="760.6,159.155,252.63,407.516" stroke="green" stroke-width="2" fill="none"/>
<circle cx="760.6" cy="159.155" r="3" stroke="yellow" stroke-width="2" fill="none"/>
<circle cx="252.63" cy="407.516" r="3" stroke="yellow" stroke-width="2" fill="none"/>
<polyline points="608.853,161.231,141.265,424.727" stroke="green" stroke-width="2" fill="none"/>
<circle cx="608.853" cy="161.231" r="3" stroke="yellow" stroke-width="2" fill="none"/>
<circle cx="141.265" cy="424.727" r="3" stroke="yellow" stroke-width="2" fill="none"/>
<polyline points="270.018,164.214,266.666,409.913" stroke="green" stroke-width="2" fill="none"/>
<circle cx="270.018" cy="164.214" r="3" stroke="yellow" stroke-width="2" fill="none"/>
<circle cx="266.666" cy="409.913" r="3" stroke="yellow" stroke-width="2" fill="none"/>
<polyline points="747.535,180.604,244.861,423.166" stroke="green" stroke-width="2" fill="none"/>
<circle cx="747.535" cy="180.604" r="3" stroke="yellow" stroke-width="2" fill="none"/>
<circle cx="244.861" cy="423.166" r="3" stroke="yellow" stroke-width="2" fill="none"/>
<polyline points="640.194,186.184,185.486,437.868" stroke="green" stroke-width="2" fill="none"/>
<circle cx="640.194" cy="186.184" r="3" stroke="yellow" stroke-width="2" fill="none"/>
<circle cx="185.486" cy="437.868" r="3" stroke="yellow" stroke-width="2" fill="none"/>
<polyline points="598.291,189.843,430.647,434.197" stroke="green" stroke-width="2" fill="none"/>
<circle cx="598.291" cy="189.843" r="3" stroke="yellow" stroke-width="2" fill="none"/>
<circle cx="430.647" cy="434.197" r="3" stroke="yellow" stroke-width="2" fill="none"/>
<polyline points="550.683,195.801,99.6434,457.767" stroke="green" stroke-width="2" fill="none"/>
<circle cx="550.683" cy="195.801" r="3" stroke="yellow" stroke-width="2" fill="none"/>
<circle cx="99.6434" cy="457.767" r="3" stroke="yellow" stroke-width="2" fill="none"/>
<polyline points="378.91,212.308,220.988,464.902" stroke="green" stroke-width="2" fill="none"/>
<circle cx="378.91" cy="212.308" r="3" stroke="yellow" stroke-width="2" fill="none"/>
<circle cx="220.988" cy="464.902" r="3" stroke="yellow" stroke-width="2" fill="none"/>
<polyline points="356.452,214.864,54.7171,464.092" stroke="green" stroke-width="2" fill="none"/>
<circle cx="356.452" cy="214.864" r="3" stroke="yellow" stroke-width="2" fill="none"/>
<circle cx="54.7171" cy="464.092" r="3" stroke="yellow" stroke-width="2" fill="none"/>
</svg>